<svg version="1.1" xmlns="http://www.w3.org/2000/svg" xmlns:xlink="http://www.w3.org/1999/xlink" width="67.17688" height="63.97208" viewBox="0,0,67.17688,63.97208"><g transform="translate(-206.41156,-148.01396)"><g data-paper-data="{&quot;isPaintingLayer&quot;:true}" fill-rule="nonzero" stroke-linecap="butt" stroke-linejoin="miter" stroke-miterlimit="10" stroke-dasharray="" stroke-dashoffset="0" style="mix-blend-mode: normal"><path d="M206.41156,180c0,-17.6654 14.32064,-31.98604 31.98604,-31.98604c17.66541,0 31.98604,14.32064 31.98604,31.98604c0,17.6654 -14.32063,31.98604 -31.98604,31.98604c-17.6654,0 -31.98604,-14.32064 -31.98604,-31.98604z" fill="#f4f5f7" stroke="#000000" stroke-width="0"/><path d="M207.84767,170.31965l52.036,32.60922c0,0 0.19597,1.19425 -4.41231,3.99833c-3.71483,2.26043 -5.65317,2.87211 -5.65317,2.87211l-43.26334,-27.11169c0,0 -0.03015,-5.16157 0.19244,-7.29096c0.20726,-1.98281 1.10038,-5.07701 1.10038,-5.07701z" fill="#1ba7a7" stroke="none" stroke-width="0"/><path d="M259.73581,182.59088c0.61626,11.37685 -10.96175,17.73866 -22.11784,18.37349c-11.15608,0.63483 -20.69947,-8.0733 -21.31573,-19.45015c-0.61626,-11.37685 7.92794,-21.11423 19.08403,-21.74906c11.15608,-0.63483 23.73328,11.44887 24.34954,22.82572z" fill="#b4b5b7" stroke="none" stroke-width="0"/><path d="M273.36075,192.07581l-22.73982,-5.39422c0,0 -0.58629,-12.30546 6.24554,-9.98642c10.79966,3.66591 16.49428,15.38064 16.49428,15.38064z" fill="#444444" stroke="#ececec" stroke-width="0.25"/><path d="M254.90601,194.40429c-4.65568,-0.23944 -4.29988,-7.8663 -4.29988,-7.8663l13.94299,3.43536c0,0 -0.66333,4.89279 -9.64312,4.43094z" data-paper-data="{&quot;index&quot;:null}" fill="#444444" stroke="#ececec" stroke-width="0.25"/><path d="M256.21185,172.39864l0.99357,1.81412c0,0 -10.31953,0.9902 -10.96192,1.85274c-3.85436,5.17525 -6.48381,5.18653 -9.42624,4.98629c-3.57989,-0.24363 -6.35409,-3.38915 -6.45728,-5.29409c-0.10318,-1.90494 1.62681,-6.44739 6.07344,-6.82726c2.81324,-0.24033 6.4163,-0.49998 9.31853,3.2573c0.67893,0.87896 10.45989,0.21089 10.45989,0.21089z" fill="#f8f8f8" stroke="none" stroke-width="0"/><path d="M244.06067,174.99034c0.11058,2.04145 -2.02869,3.82319 -4.7782,3.97966c-2.74951,0.15646 -5.06808,-1.37162 -5.17866,-3.41307c-0.11058,-2.04145 2.0287,-3.8232 4.77821,-3.97966c2.74951,-0.15646 5.06807,1.37162 5.17865,3.41307z" fill="#e6e7c2" stroke="none" stroke-width="0"/><path d="M243.14595,174.53369c0.08008,1.47839 -1.30606,2.75943 -3.09605,2.86129c-1.78999,0.10186 -3.30597,-1.01404 -3.38605,-2.49242c-0.08008,-1.47839 1.30606,-2.75943 3.09605,-2.86129c1.78999,-0.10186 3.30597,1.01404 3.38605,2.49242z" fill="#444444" stroke="none" stroke-width="0"/><path d="M241.67958,172.89501c0.01665,0.30722 -0.07217,0.56209 -0.19838,0.56927c-0.12621,0.00718 -0.24201,-0.23604 -0.25865,-0.54326c-0.01665,-0.30722 0.07218,-0.56209 0.19839,-0.56927c0.12621,-0.00718 0.242,0.23604 0.25865,0.54326z" fill="#e7e7e7" stroke="none" stroke-width="0"/></g></g></svg>