<svg version="1.1" xmlns="http://www.w3.org/2000/svg" xmlns:xlink="http://www.w3.org/1999/xlink" width="456.94233" height="64.88617" viewBox="0,0,456.94233,64.88617"><g transform="translate(-11.52884,-147.55691)"><g data-paper-data="{&quot;isPaintingLayer&quot;:true}" fill="#333333" fill-rule="evenodd" stroke="#e45858" stroke-width="0" stroke-linecap="butt" stroke-linejoin="round" stroke-miterlimit="10" stroke-dasharray="" stroke-dashoffset="0" style="mix-blend-mode: normal"><path d="M29.76923,192.35273c-1.363,0.963 -2.621,1.937 -3.774,2.921c-1.153,0.984 -2.191,1.958 -3.114,2.921c-1.357,1.343 -1.984,2.28 -1.881,2.812c0.103,0.532 0.677,1.009 1.721,1.43c2.271,1.196 3.86,1.978 4.767,2.347c0.907,0.369 1.44,0.351 1.599,-0.053c0.159,-0.405 0.253,-1.169 0.282,-2.294c0.081,-1.1 0.158,-2.581 0.23,-4.442c0.072,-1.861 0.128,-3.741 0.17,-5.642zM106.16023,180.19273c-1.205,1.329 -2.235,2.692 -3.09,4.09c-0.856,1.398 -1.506,2.781 -1.951,4.149c-1.043,3.878 -1.283,6.814 -0.718,8.807c0.564,1.994 1.8,2.655 3.706,1.982c1.907,-0.672 4.352,-3.069 7.334,-7.19c-1.045,-1.723 -2.015,-3.576 -2.91,-5.559c-0.895,-1.983 -1.686,-4.076 -2.371,-6.279zM122.80423,170.67473c-1.966,0.405 -3.856,0.995 -5.671,1.77c-1.816,0.775 -3.526,1.704 -5.131,2.789c0.436,1.683 0.963,3.356 1.58,5.019c0.617,1.663 1.344,3.297 2.18,4.9c1.084,-1.918 2.217,-4.081 3.401,-6.489c1.184,-2.408 2.397,-5.071 3.641,-7.989zM57.03923,163.23873c3.468,0.251 6.772,0.928 9.91,2.029c3.138,1.101 5.942,2.556 8.41,4.365c0.8,0.595 1.26,1.362 1.38,2.298c0.12,0.937 -0.1,1.824 -0.66,2.662c-0.592,0.764 -1.328,1.201 -2.21,1.313c-0.882,0.112 -1.718,-0.112 -2.51,-0.671c-2.055,-1.446 -4.345,-2.601 -6.87,-3.464c-2.525,-0.863 -5.195,-1.416 -8.01,-1.659c-0.943,-0.105 -1.717,-0.494 -2.32,-1.168c-0.603,-0.674 -0.897,-1.483 -0.88,-2.427c0.107,-0.986 0.513,-1.792 1.22,-2.418c0.707,-0.627 1.553,-0.914 2.54,-0.86zM285.07923,161.89873c0.898,0.103 1.662,0.496 2.29,1.18c1.187,1.44 2.253,3.039 3.2,4.798c4.315,-1.204 7.965,-1.262 10.95,-0.176c2.986,1.085 5.231,2.861 6.736,5.325c1.506,2.464 2.195,5.162 2.069,8.093c-0.126,2.931 -1.143,5.639 -3.051,8.126c-1.908,2.486 -4.783,4.294 -8.624,5.425c-2.105,0.596 -4.355,0.842 -6.75,0.739c-2.395,-0.103 -4.785,-0.536 -7.17,-1.298c-0.93,-0.315 -1.59,-0.884 -1.98,-1.708c-0.39,-0.823 -0.45,-1.692 -0.18,-2.606c0.308,-0.858 0.852,-1.481 1.63,-1.869c0.778,-0.389 1.622,-0.432 2.53,-0.13c6.8,2.24 12,1.359 15.6,-2.642c1.59,-1.948 2.184,-3.94 1.784,-5.976c-0.399,-2.036 -1.581,-3.637 -3.545,-4.802c-1.964,-1.165 -4.497,-1.415 -7.599,-0.749c0.24,0.719 0.46,1.442 0.66,2.171c0.2,0.729 0.38,1.473 0.54,2.232c0.178,0.907 0.022,1.714 -0.47,2.421c-0.492,0.707 -1.188,1.154 -2.09,1.341c-0.905,0.14 -1.715,-0.04 -2.43,-0.54c-0.715,-0.501 -1.185,-1.201 -1.41,-2.102c-0.227,-0.96 -0.493,-1.921 -0.8,-2.881c-1.44,0.807 -2.96,1.694 -4.56,2.661c-1.6,0.968 -3.28,1.975 -5.04,3.022l10.08,25.835c0.343,0.868 0.337,1.691 -0.02,2.47c-0.357,0.778 -0.963,1.341 -1.82,1.69c-0.868,0.343 -1.692,0.336 -2.47,-0.02c-0.778,-0.357 -1.342,-0.964 -1.69,-1.82l-9.76,-24.953c-1.88,0.969 -3.78,1.833 -5.7,2.592c-1.92,0.758 -3.86,1.362 -5.82,1.81c-0.908,0.176 -1.712,0.003 -2.41,-0.52c-0.698,-0.523 -1.122,-1.257 -1.27,-2.201c-0.063,-0.902 0.163,-1.699 0.68,-2.391c0.517,-0.692 1.223,-1.149 2.12,-1.371c1.605,-0.369 3.255,-0.892 4.95,-1.571c1.695,-0.679 3.405,-1.463 5.13,-2.352l-3.92,-9.997c-0.31,-0.83 -0.29,-1.646 0.06,-2.447c0.35,-0.801 0.97,-1.398 1.86,-1.789c0.868,-0.305 1.692,-0.275 2.47,0.09c0.778,0.365 1.342,0.975 1.69,1.83l3.6,9.191c1.727,-1.01 3.373,-1.99 4.94,-2.94c1.567,-0.949 3.013,-1.808 4.34,-2.577c-0.358,-0.676 -0.742,-1.321 -1.15,-1.937c-0.408,-0.616 -0.852,-1.221 -1.33,-1.817c-0.552,-0.717 -0.768,-1.484 -0.65,-2.3c0.118,-0.817 0.522,-1.464 1.21,-1.94c0.828,-0.517 1.692,-0.724 2.59,-0.62zM131.80123,150.13673c0.443,-0.068 0.912,-0.048 1.405,0.061c0.939,0.267 1.642,0.794 2.111,1.58c0.468,0.787 0.591,1.673 0.37,2.66c-0.32,1.206 -0.701,2.553 -1.141,4.039c-0.44,1.487 -0.94,3.073 -1.5,4.759c5.002,0.496 9.129,2.189 12.38,5.077c3.251,2.889 5.464,6.397 6.637,10.525c1.173,4.128 1.143,8.299 -0.089,12.514c-1.233,4.214 -3.832,7.895 -7.798,11.043c-3.967,3.148 -9.464,5.186 -16.491,6.114c-1.029,0.093 -1.912,-0.174 -2.651,-0.8c-0.738,-0.627 -1.162,-1.453 -1.27,-2.48c-0.055,-1.025 0.235,-1.894 0.87,-2.609c0.635,-0.715 1.466,-1.125 2.491,-1.23c5.061,-0.459 9.083,-1.781 12.068,-3.968c2.985,-2.187 4.992,-4.791 6.022,-7.811c1.029,-3.021 1.143,-6.011 0.339,-8.971c-0.803,-2.96 -2.463,-5.442 -4.978,-7.446c-2.515,-2.005 -5.825,-3.084 -9.93,-3.239c-0.956,2.724 -2.451,6.175 -4.486,10.355c-2.036,4.179 -4.401,8.343 -7.097,12.491c-2.696,4.149 -5.511,7.538 -8.447,10.167c-2.935,2.63 -5.781,3.757 -8.537,3.381c-2.957,-0.602 -5.13,-2.073 -6.519,-4.414c-1.389,-2.341 -1.993,-5.183 -1.813,-8.524c0.181,-3.341 1.146,-6.812 2.896,-10.413c1.75,-3.601 4.284,-6.962 7.604,-10.083c-0.48,-2.323 -0.859,-4.716 -1.139,-7.179c-0.279,-2.463 -0.459,-4.976 -0.539,-7.539c0.022,-1.021 0.358,-1.858 1.009,-2.509c0.65,-0.652 1.486,-0.989 2.506,-1.01c0.947,0.028 1.749,0.371 2.407,1.03c0.657,0.658 1,1.461 1.028,2.409c0.035,1.487 0.125,3.093 0.27,4.819c0.145,1.727 0.375,3.533 0.69,5.419c2.124,-1.286 4.458,-2.373 7.002,-3.259c2.544,-0.887 5.279,-1.533 8.203,-1.94c0.602,-1.688 1.179,-3.411 1.731,-5.169c0.552,-1.758 1.068,-3.501 1.55,-5.229c0.267,-0.941 0.794,-1.658 1.581,-2.15c0.393,-0.245 0.811,-0.402 1.255,-0.471zM360.87923,149.05073c0.451,0.05 0.895,0.193 1.334,0.428c0.89,0.475 1.466,1.165 1.727,2.07c0.261,0.905 0.138,1.815 -0.369,2.73c-2.154,3.785 -4.498,8.215 -7.033,13.289c-2.536,5.075 -5.042,10.404 -7.519,15.988c2.909,-1.864 5.531,-2.573 7.869,-2.128c2.337,0.444 4.218,1.713 5.644,3.805c1.241,2.068 1.948,4.284 2.123,6.649c0.175,2.365 0.527,4.463 1.058,6.295c0.53,1.832 1.949,2.983 4.256,3.452c3.425,0.538 6.595,-0.539 9.51,-3.23c2.915,-2.691 5.425,-6.867 7.53,-12.526c0.388,-0.974 1.011,-1.663 1.87,-2.068c0.858,-0.404 1.781,-0.434 2.77,-0.09c0.938,0.395 1.621,1.044 2.05,1.948c0.428,0.904 0.491,1.852 0.19,2.846c-1.888,5.262 -4.193,9.476 -6.916,12.643c-2.723,3.167 -5.579,5.396 -8.569,6.687c-2.99,1.291 -5.828,1.755 -8.515,1.39c-3.715,-0.574 -6.363,-1.812 -7.943,-3.713c-1.581,-1.901 -2.587,-4.024 -3.019,-6.367c-0.433,-2.344 -0.784,-4.467 -1.056,-6.368c-0.271,-1.901 -0.955,-3.139 -2.052,-3.712c-1.903,-0.745 -4.156,0.186 -6.76,2.79c-2.603,2.605 -5.416,6.795 -8.44,12.57c-0.201,0.563 -0.398,1.136 -0.59,1.72c-0.191,0.583 -0.368,1.156 -0.53,1.72c-0.351,0.94 -0.948,1.64 -1.79,2.1c-0.841,0.46 -1.738,0.56 -2.69,0.3c-0.98,-0.274 -1.7,-0.827 -2.16,-1.66c-0.46,-0.834 -0.54,-1.747 -0.24,-2.74c1.941,-5.938 4.397,-12.346 7.369,-19.224c2.972,-6.879 6.015,-13.481 9.129,-19.809c3.114,-6.327 5.855,-11.633 8.222,-15.917c0.519,-0.89 1.241,-1.47 2.168,-1.74c0.464,-0.135 0.921,-0.178 1.372,-0.128zM437.53923,148.10873c0.44,-0.007 0.887,0.076 1.342,0.25c0.897,0.391 1.544,1.008 1.941,1.85c0.397,0.841 0.444,1.718 0.14,2.63c-0.602,1.6 -1.199,3.24 -1.79,4.92c-0.592,1.68 -1.169,3.4 -1.731,5.16c2.491,-0.397 5.072,-0.944 7.742,-1.64c2.671,-0.697 5.372,-1.564 8.103,-2.6c0.915,-0.31 1.806,-0.29 2.671,0.06c0.865,0.35 1.495,0.97 1.89,1.86c0.349,0.916 0.352,1.803 0.01,2.659c-0.341,0.856 -0.958,1.463 -1.85,1.819c-3.113,1.163 -6.45,2.172 -10.013,3.025c-3.563,0.854 -7.161,1.523 -10.794,2.008c-0.845,2.931 -1.595,5.875 -2.25,8.833c-0.656,2.958 -1.186,5.88 -1.591,8.766c4.968,-4.837 10.014,-7.756 15.138,-8.756c5.125,-1 9.648,-0.493 13.571,1.519c3.923,2.012 6.567,5.117 7.932,9.317c0.567,1.874 0.622,4.14 0.165,6.798c-0.457,2.659 -1.712,5.262 -3.764,7.812c-2.052,2.549 -5.187,4.598 -9.405,6.146c-4.217,1.548 -9.802,2.149 -16.755,1.804c-0.945,-0.107 -1.715,-0.514 -2.311,-1.22c-0.595,-0.707 -0.865,-1.554 -0.81,-2.54c0.112,-0.942 0.529,-1.699 1.251,-2.27c0.722,-0.572 1.558,-0.829 2.51,-0.77c6.399,0.352 11.464,-0.246 15.195,-1.793c3.731,-1.547 6.146,-3.596 7.246,-6.148c1.099,-2.552 0.901,-5.158 -0.594,-7.819c-1.312,-2.262 -3.524,-3.807 -6.636,-4.635c-3.111,-0.828 -6.61,-0.483 -10.495,1.035c-3.885,1.518 -7.644,4.664 -11.278,9.44c-0.586,0.846 -1.352,1.453 -2.298,1.82c-0.946,0.366 -1.911,0.453 -2.896,0.26c-1.017,-0.307 -1.82,-0.874 -2.407,-1.7c-0.588,-0.827 -0.851,-1.754 -0.789,-2.78c0.365,-3.761 0.894,-7.517 1.588,-11.267c0.694,-3.75 1.523,-7.487 2.487,-11.213c-1.562,0.115 -3.074,0.165 -4.536,0.15c-1.463,-0.015 -2.856,-0.065 -4.179,-0.15c-0.98,-0.07 -1.76,-0.45 -2.34,-1.139c-0.58,-0.689 -0.84,-1.508 -0.78,-2.456c0.068,-0.977 0.452,-1.759 1.15,-2.347c0.698,-0.587 1.542,-0.87 2.53,-0.849c1.21,0.044 2.669,0.057 4.378,0.04c1.709,-0.016 3.607,-0.083 5.694,-0.199c0.682,-2.325 1.395,-4.615 2.139,-6.87c0.743,-2.255 1.496,-4.445 2.26,-6.57c0.43,-0.934 1.07,-1.587 1.921,-1.96c0.425,-0.187 0.857,-0.284 1.298,-0.29zM197.53923,148.10873c0.44,-0.007 0.887,0.076 1.342,0.25c0.897,0.391 1.544,1.008 1.941,1.85c0.397,0.841 0.443,1.718 0.14,2.63c-0.602,1.6 -1.199,3.24 -1.79,4.92c-0.592,1.68 -1.169,3.4 -1.731,5.16c2.491,-0.397 5.072,-0.944 7.742,-1.64c2.671,-0.697 5.372,-1.564 8.103,-2.6c0.915,-0.31 1.806,-0.29 2.671,0.06c0.865,0.35 1.495,0.97 1.89,1.86c0.349,0.916 0.352,1.803 0.01,2.659c-0.341,0.856 -0.958,1.463 -1.85,1.819c-3.113,1.163 -6.45,2.172 -10.013,3.025c-3.563,0.854 -7.161,1.523 -10.794,2.008c-0.845,2.931 -1.595,5.875 -2.25,8.833c-0.656,2.958 -1.186,5.88 -1.591,8.766c4.968,-4.837 10.014,-7.756 15.138,-8.756c5.125,-1 9.648,-0.493 13.571,1.519c3.923,2.012 6.567,5.117 7.932,9.317c0.567,1.874 0.622,4.14 0.165,6.798c-0.457,2.659 -1.712,5.262 -3.764,7.812c-2.052,2.549 -5.187,4.598 -9.405,6.146c-4.217,1.548 -9.802,2.149 -16.755,1.804c-0.945,-0.107 -1.715,-0.514 -2.311,-1.22c-0.595,-0.707 -0.865,-1.554 -0.81,-2.54c0.112,-0.942 0.529,-1.699 1.251,-2.27c0.721,-0.572 1.558,-0.829 2.51,-0.77c6.399,0.352 11.464,-0.246 15.195,-1.793c3.731,-1.547 6.146,-3.596 7.246,-6.148c1.099,-2.552 0.901,-5.158 -0.594,-7.819c-1.312,-2.262 -3.524,-3.807 -6.636,-4.635c-3.111,-0.828 -6.61,-0.483 -10.495,1.035c-3.885,1.518 -7.644,4.664 -11.278,9.44c-0.586,0.846 -1.352,1.453 -2.298,1.82c-0.946,0.366 -1.911,0.453 -2.896,0.26c-1.017,-0.307 -1.82,-0.874 -2.407,-1.7c-0.588,-0.827 -0.851,-1.754 -0.789,-2.78c0.365,-3.761 0.894,-7.517 1.588,-11.267c0.694,-3.75 1.523,-7.487 2.487,-11.213c-1.562,0.115 -3.074,0.165 -4.536,0.15c-1.463,-0.015 -2.856,-0.065 -4.179,-0.15c-0.98,-0.07 -1.76,-0.45 -2.34,-1.139c-0.58,-0.689 -0.84,-1.508 -0.78,-2.456c0.068,-0.977 0.452,-1.759 1.15,-2.347c0.698,-0.587 1.542,-0.87 2.53,-0.849c1.21,0.044 2.669,0.057 4.378,0.04c1.709,-0.016 3.607,-0.083 5.694,-0.199c0.682,-2.325 1.395,-4.615 2.139,-6.87c0.743,-2.255 1.496,-4.445 2.26,-6.57c0.43,-0.934 1.07,-1.587 1.921,-1.96c0.425,-0.187 0.857,-0.284 1.298,-0.29zM29.71123,147.59973c0.445,0.068 0.874,0.218 1.286,0.449c0.824,0.461 1.373,1.178 1.648,2.15c0.441,1.65 0.857,3.51 1.248,5.58c0.391,2.07 0.747,4.29 1.068,6.66c2.638,-0.707 5.118,-1.534 7.438,-2.48c0.91,-0.347 1.79,-0.354 2.64,-0.02c0.85,0.333 1.49,0.926 1.92,1.78c0.387,0.911 0.413,1.788 0.08,2.63c-0.333,0.841 -0.947,1.458 -1.84,1.849c-1.483,0.599 -3.017,1.158 -4.6,1.677c-1.583,0.52 -3.196,0.999 -4.839,1.438c0.163,1.802 0.316,3.656 0.46,5.561c0.143,1.905 0.256,3.838 0.339,5.799c4.063,-1.764 8.077,-2.869 12.04,-3.316c3.963,-0.447 7.737,-0.193 11.32,0.76c4.181,1.206 7.38,3.132 9.597,5.779c2.216,2.646 3.514,5.584 3.894,8.813c0.38,3.229 -0.095,6.321 -1.424,9.275c-1.329,2.955 -3.448,5.343 -6.358,7.165c-2.91,1.822 -6.546,2.648 -10.909,2.48c-2.395,-0.122 -4.505,-0.578 -6.33,-1.368c-1.825,-0.791 -3.395,-1.906 -4.71,-3.346c-0.635,-0.75 -0.905,-1.586 -0.81,-2.508c0.095,-0.921 0.525,-1.738 1.29,-2.45c0.667,-0.558 1.433,-0.822 2.3,-0.79c0.867,0.032 1.673,0.349 2.42,0.95c2.562,1.948 5.287,2.787 8.175,2.517c2.888,-0.27 5.287,-1.345 7.197,-3.224c1.91,-1.879 2.679,-4.258 2.308,-7.136c-0.703,-3.72 -2.488,-6.47 -5.354,-8.251c-2.866,-1.781 -6.435,-2.522 -10.705,-2.222c-4.271,0.299 -8.864,1.709 -13.781,4.23c0.038,2.729 0.002,5.454 -0.11,8.173c-0.111,2.72 -0.288,5.385 -0.529,7.994c-0.449,3.439 -1.748,5.67 -3.897,6.692c-2.148,1.023 -5.089,0.816 -8.821,-0.619c-2.892,-1.149 -5.246,-2.536 -7.063,-4.162c-1.817,-1.627 -2.537,-3.631 -2.16,-6.015c0.377,-2.383 2.411,-5.283 6.101,-8.702c1.563,-1.4 3.14,-2.701 4.734,-3.901c1.593,-1.201 3.191,-2.302 4.795,-3.302c-0.04,-2.319 -0.12,-4.594 -0.24,-6.826c-0.12,-2.231 -0.281,-4.409 -0.481,-6.532c-4.553,0.812 -9.22,1.345 -14,1.598c-0.986,0.015 -1.813,-0.295 -2.479,-0.929c-0.667,-0.634 -1.013,-1.443 -1.04,-2.426c-0.013,-0.946 0.293,-1.751 0.92,-2.417c0.626,-0.666 1.413,-1.032 2.359,-1.098c2.322,-0.117 4.61,-0.304 6.865,-0.56c2.255,-0.257 4.447,-0.604 6.574,-1.04c-0.322,-2.327 -0.679,-4.514 -1.071,-6.56c-0.392,-2.047 -0.809,-3.914 -1.251,-5.6c-0.226,-0.949 -0.116,-1.812 0.33,-2.59c0.445,-0.779 1.136,-1.302 2.072,-1.57c0.478,-0.094 0.939,-0.107 1.384,-0.039z"/></g></g></svg>