<svg version="1.1" xmlns="http://www.w3.org/2000/svg" xmlns:xlink="http://www.w3.org/1999/xlink" width="357.84323" height="50.81464" viewBox="0,0,357.84323,50.81464"><g transform="translate(-61.07841,-154.59266)"><g data-paper-data="{&quot;isPaintingLayer&quot;:true}" stroke="#000000" stroke-width="0" stroke-linecap="butt" stroke-miterlimit="10" stroke-dasharray="" stroke-dashoffset="0" style="mix-blend-mode: normal"><path d="M75.36291,189.67402c-1.0674,0.75415 -2.05257,1.51691 -2.95552,2.28751c-0.90294,0.7706 -1.71583,1.53336 -2.43865,2.28751c-1.0627,1.05174 -1.55372,1.78553 -1.47306,2.20215c0.08066,0.41662 0.53018,0.78939 1.34776,1.11987c1.77848,0.93662 3.02286,1.54902 3.73316,1.838c0.71029,0.28897 1.1277,0.27488 1.25222,-0.04151c0.12452,-0.31717 0.19813,-0.91547 0.22084,-1.79649c0.06343,-0.86144 0.12373,-2.02125 0.18012,-3.47864c0.05639,-1.4574 0.10024,-2.93046 0.13313,-4.41839zM135.18665,180.15122c-0.94367,1.03999 -1.75029,2.10817 -2.41986,3.20298c-0.67036,1.09481 -1.17939,2.17787 -1.52788,3.24919c-0.8168,3.03696 -1.00475,5.33622 -0.56228,6.89699c0.44168,1.56155 1.40963,2.0792 2.90226,1.55215c1.49342,-0.52626 3.40816,-2.40341 5.74344,-5.63067c-0.81837,-1.34933 -1.578,-2.80046 -2.2789,-4.3534c-0.7009,-1.55294 -1.32035,-3.19202 -1.85679,-4.91725zM148.221,172.69743c-1.53962,0.31717 -3.01973,0.77921 -4.44111,1.38613c-1.42216,0.60614 -2.7613,1.33445 -4.01822,2.18414c0.34144,1.318 0.75415,2.62817 1.23734,3.93051c0.48319,1.30234 1.05252,2.58118 1.70721,3.83653c0.84891,-1.50203 1.73619,-3.19515 2.66341,-5.08092c0.92722,-1.88577 1.87715,-3.97123 2.85136,-6.25639zM96.71874,166.87411c2.71588,0.19656 5.30333,0.72674 7.76077,1.58896c2.45745,0.86144 4.65333,2.00089 6.58609,3.41834c0.6265,0.46596 0.98674,1.06662 1.08071,1.79962c0.09398,0.73301 -0.07831,1.42842 -0.51686,2.08468c-0.46361,0.59752 -1.03999,0.94053 -1.73071,1.02824c-0.69072,0.08771 -1.34541,-0.08771 -1.96565,-0.52626c-1.60932,-1.1324 -3.40268,-2.03613 -5.38007,-2.71196c-1.97739,-0.67584 -4.06834,-1.10891 -6.27284,-1.29921c-0.73849,-0.08223 -1.34463,-0.38686 -1.81685,-0.91469c-0.47222,-0.52783 -0.70246,-1.16138 -0.68915,-1.90065c0.08379,-0.77216 0.40174,-1.40336 0.95541,-1.89438c0.55367,-0.49024 1.21619,-0.71499 1.98914,-0.6727zM275.3027,165.82472c0.70325,0.08066 1.30155,0.38843 1.79336,0.92409c0.92957,1.1277 1.76438,2.37992 2.506,3.75744c3.37919,-0.94288 6.2376,-0.98909 8.57523,-0.13861c2.33841,0.85047 4.09653,2.24052 5.27513,4.17093c1.17939,1.92962 1.71896,4.04171 1.62029,6.33784c-0.09867,2.29534 -0.89511,4.41605 -2.38932,6.36368c-1.4942,1.94685 -3.74569,3.36274 -6.75368,4.24846c-1.64848,0.46674 -3.41051,0.65939 -5.2861,0.57873c-1.87559,-0.08066 -3.74726,-0.41976 -5.61501,-1.0165c-0.72831,-0.24668 -1.24517,-0.69228 -1.55059,-1.33758c-0.30542,-0.64451 -0.35241,-1.32505 -0.14096,-2.04083c0.2412,-0.67192 0.66722,-1.15981 1.27649,-1.46366c0.60927,-0.30464 1.27023,-0.33831 1.98131,-0.10181c5.32525,1.7542 9.39751,1.06427 12.21676,-2.06902c1.24517,-1.52553 1.71035,-3.08551 1.3971,-4.67996c-0.31247,-1.59444 -1.23812,-2.84823 -2.77618,-3.76057c-1.53806,-0.91234 -3.52172,-1.10812 -5.95097,-0.58656c0.18795,0.56307 0.36024,1.12927 0.51686,1.70017c0.15663,0.5709 0.29759,1.15354 0.42289,1.74794c0.1394,0.71029 0.01723,1.34228 -0.36807,1.89595c-0.3853,0.55367 -0.93035,0.90373 -1.63673,1.05017c-0.70873,0.10964 -1.34306,-0.03133 -1.903,-0.42289c-0.55993,-0.39235 -0.928,-0.94053 -1.10421,-1.64613c-0.17777,-0.7518 -0.38608,-1.50438 -0.6265,-2.25697c-1.1277,0.63277 -2.31805,1.3274 -3.57105,2.08468c-1.253,0.75728 -2.56865,1.54667 -3.94695,2.36661l7.89391,20.23205c0.26861,0.67975 0.26391,1.32427 -0.01566,1.93432c-0.27958,0.60927 -0.75415,1.05017 -1.42529,1.32348c-0.67975,0.26861 -1.32505,0.26313 -1.93432,-0.01566c-0.60927,-0.27958 -1.05095,-0.75493 -1.32348,-1.42529l-7.64331,-19.54133c-1.47228,0.75885 -2.96021,1.43547 -4.46382,2.02986c-1.5036,0.59361 -3.02286,1.06662 -4.55779,1.41746c-0.71108,0.13783 -1.34071,0.00235 -1.88733,-0.40723c-0.54662,-0.40957 -0.87867,-0.98439 -0.99457,-1.72366c-0.04934,-0.70638 0.12765,-1.33053 0.53253,-1.87245c0.40488,-0.54192 0.95776,-0.89981 1.66023,-1.07367c1.25692,-0.28897 2.54907,-0.69855 3.87647,-1.23029c1.3274,-0.53174 2.66654,-1.14571 4.01743,-1.84191l-3.06985,-7.82891c-0.24277,-0.64999 -0.22711,-1.28902 0.04699,-1.91631c0.27409,-0.62728 0.75963,-1.09481 1.45661,-1.40101c0.67975,-0.23885 1.32505,-0.21536 1.93432,0.07048c0.60927,0.28584 1.05095,0.76355 1.32348,1.43312l2.81925,7.19771c1.35246,-0.79096 2.64148,-1.55842 3.86864,-2.30239c1.22716,-0.74319 2.35956,-1.41589 3.39877,-2.01811c-0.28036,-0.52939 -0.58108,-1.03451 -0.90059,-1.51691c-0.31952,-0.48241 -0.66722,-0.95698 -1.04156,-1.42294c-0.43229,-0.5615 -0.60144,-1.16216 -0.50903,-1.80119c0.09241,-0.63981 0.40879,-1.1465 0.94758,-1.51926c0.64843,-0.40488 1.32505,-0.56698 2.0283,-0.48554zM155.26678,156.61359c0.34692,-0.05325 0.71421,-0.03759 1.10029,0.04777c0.73535,0.20909 1.28589,0.6218 1.65318,1.23734c0.3665,0.61632 0.46283,1.31017 0.28976,2.08311c-0.2506,0.94445 -0.54897,1.99932 -0.89355,3.16304c-0.34458,1.16372 -0.73614,2.40654 -1.17469,3.72689c3.91719,0.38843 7.14915,1.71348 9.69509,3.97593c2.54594,2.26245 4.279,5.00965 5.1976,8.2424c0.91861,3.23274 0.89511,6.49916 -0.0697,9.80003c-0.96559,3.30009 -3.00094,6.18278 -6.10681,8.64806c-3.10666,2.46528 -7.4115,4.06129 -12.91452,4.78803c-0.80584,0.07283 -1.49734,-0.13626 -2.07607,-0.6265c-0.57795,-0.49102 -0.90999,-1.13788 -0.99457,-1.94215c-0.04307,-0.8027 0.18403,-1.48402 0.68132,-2.04317c0.49728,-0.55993 1.14806,-0.88102 1.95077,-0.96324c3.9634,-0.35945 7.11313,-1.39475 9.45076,-3.10744c2.33763,-1.7127 3.90936,-3.75195 4.71598,-6.11699c0.80584,-2.36582 0.89511,-4.70737 0.26548,-7.02542c-0.62885,-2.31805 -1.92884,-4.26177 -3.8984,-5.83115c-1.96956,-1.57017 -4.56171,-2.41516 -7.77644,-2.53654c-0.74867,2.13323 -1.91944,4.8358 -3.5131,8.10927c-1.59444,3.27268 -3.44654,6.53362 -5.55784,9.78202c-2.11131,3.2484 -4.31581,5.90242 -6.61506,7.96204c-2.29847,2.05962 -4.52725,2.9422 -6.68554,2.64775c-2.3157,-0.47144 -4.01743,-1.62342 -5.1052,-3.45672c-1.08776,-1.83408 -1.56077,-4.05894 -1.41981,-6.67536c0.14175,-2.61642 0.89746,-5.33465 2.26793,-8.15469c1.37047,-2.82004 3.35491,-5.45212 5.95489,-7.89626c-0.3759,-1.8192 -0.6727,-3.69322 -0.89198,-5.62206c-0.21849,-1.92884 -0.35945,-3.89683 -0.4221,-5.90398c0.01723,-0.79957 0.28036,-1.45505 0.79017,-1.96565c0.50903,-0.50981 1.16372,-0.77373 1.96251,-0.79017c0.74162,0.02193 1.36969,0.29054 1.88498,0.80584c0.51451,0.51608 0.78313,1.14493 0.80505,1.88733c0.02741,1.16372 0.09789,2.42221 0.21144,3.77388c0.11355,1.35246 0.29367,2.76678 0.54036,4.24376c1.66336,-1.0071 3.49117,-1.85836 5.48345,-2.55221c1.99227,-0.69463 4.13412,-1.20053 6.42398,-1.51926c0.47144,-1.32192 0.92331,-2.67124 1.35559,-4.04798c0.43229,-1.37673 0.83638,-2.74172 1.21384,-4.09496c0.20909,-0.7377 0.6218,-1.29842 1.23812,-1.68372c0.30777,-0.19187 0.63511,-0.3156 0.98282,-0.36885zM334.66362,155.76312c0.35319,0.03916 0.7009,0.15114 1.04469,0.33518c0.69698,0.37198 1.14806,0.91234 1.35246,1.62107c0.2044,0.70873 0.10807,1.42137 -0.28897,2.13793c-1.68685,2.96413 -3.5225,6.43338 -5.50772,10.40696c-1.98601,3.97436 -3.94852,8.14764 -5.88832,12.52061c2.27811,-1.45975 4.33147,-2.01498 6.16242,-1.66649c1.83016,0.34771 3.30322,1.34149 4.41996,2.97979c0.97186,1.6195 1.52553,3.35491 1.66258,5.207c0.13705,1.85209 0.41271,3.49509 0.82855,4.92978c0.41506,1.43469 1.52631,2.33528 3.33298,2.70335c2.68221,0.42132 5.16471,-0.4221 7.44752,-2.5295c2.28281,-2.10739 4.24846,-5.37772 5.89694,-9.81021c0.30385,-0.76198 0.79174,-1.30155 1.46444,-1.61872c0.67192,-0.31638 1.39475,-0.33988 2.16926,-0.07048c0.73457,0.30933 1.26945,0.81758 1.60541,1.52553c0.33518,0.70795 0.38451,1.45035 0.14879,2.22878c-1.47854,4.12081 -3.28365,7.4209 -5.4161,9.90106c-2.13245,2.47938 -4.36906,4.22575 -6.7106,5.23676c-2.34155,1.01102 -4.56406,1.3736 -6.66831,1.08854c-2.90931,-0.44951 -4.98303,-1.41902 -6.22037,-2.90775c-1.23812,-1.48872 -2.02595,-3.1513 -2.36426,-4.98616c-0.33909,-1.83565 -0.61397,-3.49822 -0.82698,-4.98694c-0.21223,-1.48872 -0.74788,-2.45823 -1.60697,-2.90696c-1.49029,-0.58343 -3.25467,0.14566 -5.29393,2.18492c-2.03848,2.04004 -4.24141,5.32134 -6.60958,9.84389c-0.15741,0.4409 -0.31168,0.88963 -0.46204,1.34698c-0.14958,0.45656 -0.28819,0.90529 -0.41506,1.34698c-0.27488,0.73614 -0.7424,1.28433 -1.40179,1.64456c-0.65861,0.36024 -1.36107,0.43855 -2.10661,0.23494c-0.76746,-0.21458 -1.33131,-0.64764 -1.69155,-1.29999c-0.36024,-0.65313 -0.42289,-1.36812 -0.18795,-2.14576c1.52005,-4.6502 3.4434,-9.66847 5.77085,-15.05481c2.32745,-5.38712 4.7105,-10.5581 7.14915,-15.51293c2.43865,-4.95484 4.5852,-9.1101 6.43886,-12.46501c0.40644,-0.69698 0.97186,-1.15119 1.69782,-1.36264c0.36337,-0.10572 0.72126,-0.1394 1.07445,-0.10024zM394.69803,155.02542c0.34458,-0.00548 0.69463,0.05952 1.05095,0.19578c0.70246,0.3062 1.20915,0.78939 1.52005,1.44878c0.3109,0.65861 0.34771,1.34541 0.10964,2.05962c-0.47144,1.253 -0.93897,2.53733 -1.40179,3.85298c-0.46361,1.31565 -0.91547,2.66263 -1.35559,4.04093c1.95077,-0.3109 3.97201,-0.73927 6.06296,-1.28433c2.09173,-0.54584 4.20695,-1.22481 6.34567,-2.03613c0.71656,-0.24277 1.41432,-0.22711 2.09173,0.04699c0.6774,0.27409 1.17077,0.75963 1.48011,1.45661c0.27331,0.71734 0.27566,1.41198 0.00783,2.08233c-0.26705,0.67036 -0.75023,1.14571 -1.44878,1.42451c-2.43787,0.91078 -5.05116,1.70095 -7.84144,2.36895c-2.79028,0.66879 -5.60796,1.1927 -8.45306,1.57173c-0.66174,2.29612 -1.24909,4.60165 -1.76203,6.91813c-0.51373,2.31649 -0.92879,4.60478 -1.24595,6.86488c3.89057,-3.78798 7.84222,-6.07392 11.85496,-6.85705c4.01352,-0.78313 7.5556,-0.38686 10.6278,1.18957c3.0722,1.57565 5.14279,4.00725 6.21175,7.29638c0.44403,1.46758 0.4871,3.24214 0.12922,5.32369c-0.35789,2.08155 -1.34071,4.12081 -2.94768,6.11778c-1.60697,1.99619 -4.06207,3.60081 -7.3653,4.81309c-3.30244,1.21228 -7.6762,1.68294 -13.12127,1.41276c-0.74005,-0.08379 -1.34306,-0.40253 -1.8098,-0.95541c-0.46596,-0.55367 -0.6774,-1.21698 -0.63433,-1.98914c0.08771,-0.7377 0.41427,-1.33053 0.97969,-1.7777c0.56542,-0.44795 1.22011,-0.64921 1.96565,-0.60301c5.01122,0.27566 8.97775,-0.19265 11.89959,-1.40414c2.92184,-1.2115 4.81309,-2.8169 5.67453,-4.81466c0.86066,-1.99854 0.7056,-4.03936 -0.46518,-6.12326c-1.02746,-1.77143 -2.75973,-2.98136 -5.19682,-3.62979c-2.4363,-0.64843 -5.17646,-0.37825 -8.2189,0.81053c-3.04244,1.18878 -5.98621,3.6525 -8.83209,7.39271c-0.45891,0.66252 -1.05879,1.13788 -1.79962,1.42529c-0.74084,0.28662 -1.49655,0.35476 -2.26793,0.20361c-0.79644,-0.24042 -1.42529,-0.68445 -1.88498,-1.33131c-0.46048,-0.64764 -0.66644,-1.3736 -0.61789,-2.17709c0.28584,-2.94534 0.70011,-5.88676 1.2436,-8.82348c0.54349,-2.93672 1.1927,-5.86404 1.94763,-8.78119c-1.22324,0.09006 -2.40733,0.12922 -3.55226,0.11747c-1.14571,-0.01175 -2.23661,-0.0509 -3.27268,-0.11747c-0.76746,-0.05482 -1.3783,-0.35241 -1.83251,-0.89198c-0.45421,-0.53957 -0.65783,-1.18095 -0.61084,-1.92336c0.05325,-0.76511 0.35397,-1.37752 0.90059,-1.838c0.54662,-0.45969 1.20758,-0.68132 1.98131,-0.66487c0.94758,0.03446 2.09016,0.04464 3.42852,0.03133c1.33836,-0.01253 2.82473,-0.065 4.45912,-0.15584c0.53409,-1.82077 1.09246,-3.61412 1.67511,-5.38007c0.58186,-1.76595 1.17156,-3.48099 1.76986,-5.14514c0.33674,-0.73144 0.83794,-1.24282 1.50438,-1.53493c0.33283,-0.14644 0.67114,-0.22241 1.0165,-0.22711zM206.74789,155.02542c0.34458,-0.00548 0.69463,0.05952 1.05095,0.19578c0.70246,0.3062 1.20915,0.78939 1.52005,1.44878c0.3109,0.65861 0.34692,1.34541 0.10964,2.05962c-0.47144,1.253 -0.93897,2.53733 -1.40179,3.85298c-0.46361,1.31565 -0.91547,2.66263 -1.35559,4.04093c1.95077,-0.3109 3.97201,-0.73927 6.06296,-1.28433c2.09173,-0.54584 4.20695,-1.22481 6.34567,-2.03613c0.71656,-0.24277 1.41432,-0.22711 2.09173,0.04699c0.6774,0.27409 1.17077,0.75963 1.48011,1.45661c0.27331,0.71734 0.27566,1.41198 0.00783,2.08233c-0.26705,0.67036 -0.75023,1.14571 -1.44878,1.42451c-2.43787,0.91078 -5.05116,1.70095 -7.84144,2.36895c-2.79028,0.66879 -5.60796,1.1927 -8.45306,1.57173c-0.66174,2.29612 -1.24909,4.60165 -1.76203,6.91813c-0.51373,2.31649 -0.92879,4.60478 -1.24595,6.86488c3.89057,-3.78798 7.84222,-6.07392 11.85496,-6.85705c4.01352,-0.78313 7.5556,-0.38686 10.6278,1.18957c3.0722,1.57565 5.14279,4.00725 6.21175,7.29638c0.44403,1.46758 0.4871,3.24214 0.12922,5.32369c-0.35789,2.08155 -1.34071,4.12081 -2.94768,6.11778c-1.60697,1.99619 -4.06207,3.60081 -7.3653,4.81309c-3.30244,1.21228 -7.6762,1.68294 -13.12127,1.41276c-0.74005,-0.08379 -1.34306,-0.40253 -1.8098,-0.95541c-0.46596,-0.55367 -0.6774,-1.21698 -0.63433,-1.98914c0.08771,-0.7377 0.41427,-1.33053 0.97969,-1.7777c0.56463,-0.44795 1.22011,-0.64921 1.96565,-0.60301c5.01122,0.27566 8.97775,-0.19265 11.89959,-1.40414c2.92184,-1.2115 4.81309,-2.8169 5.67453,-4.81466c0.86066,-1.99854 0.7056,-4.03936 -0.46518,-6.12326c-1.02746,-1.77143 -2.75973,-2.98136 -5.19682,-3.62979c-2.4363,-0.64843 -5.17646,-0.37825 -8.2189,0.81053c-3.04244,1.18878 -5.98621,3.6525 -8.83209,7.39271c-0.45891,0.66252 -1.05879,1.13788 -1.79962,1.42529c-0.74084,0.28662 -1.49655,0.35476 -2.26793,0.20361c-0.79644,-0.24042 -1.42529,-0.68445 -1.88498,-1.33131c-0.46048,-0.64764 -0.66644,-1.3736 -0.61789,-2.17709c0.28584,-2.94534 0.70011,-5.88676 1.2436,-8.82348c0.54349,-2.93672 1.1927,-5.86404 1.94763,-8.78119c-1.22324,0.09006 -2.40733,0.12922 -3.55226,0.11747c-1.14571,-0.01175 -2.23661,-0.0509 -3.27268,-0.11747c-0.76746,-0.05482 -1.3783,-0.35241 -1.83251,-0.89198c-0.45421,-0.53957 -0.65783,-1.18095 -0.61084,-1.92336c0.05325,-0.76511 0.35397,-1.37752 0.90059,-1.838c0.54662,-0.45969 1.20758,-0.68132 1.98131,-0.66487c0.94758,0.03446 2.09016,0.04464 3.42852,0.03133c1.33836,-0.01253 2.82473,-0.065 4.45912,-0.15584c0.53409,-1.82077 1.09246,-3.61412 1.67511,-5.38007c0.58186,-1.76595 1.17156,-3.48099 1.76986,-5.14514c0.33674,-0.73144 0.83794,-1.24282 1.50438,-1.53493c0.33283,-0.14644 0.67114,-0.22241 1.0165,-0.22711zM75.31749,154.6268c0.34849,0.05325 0.68445,0.17072 1.0071,0.35162c0.6453,0.36102 1.07523,0.92252 1.29059,1.68372c0.34536,1.29216 0.67114,2.74877 0.97734,4.36984c0.3062,1.62107 0.58499,3.35961 0.83638,5.21562c2.06589,-0.55367 4.00804,-1.20131 5.82489,-1.94215c0.71264,-0.27174 1.40179,-0.27723 2.06745,-0.01566c0.66566,0.26078 1.16686,0.72517 1.5036,1.39396c0.30307,0.71343 0.32343,1.40023 0.06265,2.05884c-0.26078,0.65939 -0.74162,1.1418 -1.44095,1.44878c-1.16138,0.46909 -2.36269,0.90686 -3.60238,1.3133c-1.23969,0.40644 -2.50287,0.78234 -3.78954,1.12613c0.12765,1.41119 0.24747,2.86311 0.36024,4.35496c0.11199,1.49107 0.20048,3.00564 0.26548,4.54135c3.18184,-1.38143 6.32531,-2.24679 9.42883,-2.59684c3.10353,-0.35006 6.05904,-0.15114 8.86498,0.59518c3.27425,0.94445 5.77947,2.45275 7.51566,4.5249c1.73541,2.07293 2.7519,4.37376 3.04949,6.90247c0.29759,2.52871 -0.0744,4.95014 -1.11517,7.26349c-1.04077,2.31414 -2.70022,4.18424 -4.97911,5.61109c-2.2789,1.42607 -5.12634,2.07372 -8.54312,1.94215c-1.87559,-0.09554 -3.52798,-0.45265 -4.95718,-1.07132c-1.4292,-0.61945 -2.65871,-1.49264 -3.68852,-2.62034c-0.49728,-0.58734 -0.70873,-1.24204 -0.63433,-1.96408c0.0744,-0.72126 0.41114,-1.36107 1.01023,-1.91866c0.52234,-0.43698 1.12222,-0.64373 1.80119,-0.61867c0.67897,0.02506 1.31017,0.27253 1.89516,0.74397c2.00637,1.52553 4.14038,2.18257 6.40205,1.97113c2.26167,-0.21144 4.14038,-1.0533 5.63615,-2.5248c1.49577,-1.47149 2.09799,-3.33455 1.80745,-5.58917c-0.55054,-2.91244 -1.94842,-5.06682 -4.19285,-6.46079c-2.24444,-1.39475 -5.03941,-1.97504 -8.38336,-1.74011c-3.34473,0.23415 -6.94163,1.33836 -10.79225,3.31184c0.02976,2.13793 0.00157,4.27195 -0.08614,6.40127c-0.08693,2.1301 -0.22554,4.21713 -0.41427,6.26031c-0.35162,2.69317 -1.3689,4.44032 -3.05184,5.24068c-1.68215,0.80114 -3.98533,0.63903 -6.90795,-0.48554c-2.2648,-0.89903 -4.10828,-1.98522 -5.53122,-3.25937c-1.42294,-1.27336 -1.98679,-2.84353 -1.69155,-4.70972c0.29524,-1.86619 1.88812,-4.13725 4.77785,-6.81476c1.22403,-1.09638 2.45901,-2.11522 3.70732,-3.05576c1.24752,-0.93975 2.49895,-1.80197 3.75509,-2.5851c-0.03133,-1.81607 -0.09398,-3.59768 -0.18795,-5.34562c-0.09398,-1.74715 -0.22006,-3.4528 -0.37668,-5.11538c-3.56557,0.6359 -7.22042,1.0533 -10.96376,1.25143c-0.77216,0.01175 -1.41981,-0.23102 -1.94137,-0.72752c-0.52234,-0.4965 -0.79331,-1.13005 -0.81445,-1.90065c-0.01018,-0.74005 0.22946,-1.37047 0.72048,-1.89203c0.49024,-0.52156 1.10656,-0.80819 1.84739,-0.85987c1.81842,-0.09163 3.61021,-0.23807 5.37616,-0.43855c1.76595,-0.20126 3.48256,-0.47301 5.14827,-0.81445c-0.25217,-1.82233 -0.53174,-3.53503 -0.83873,-5.1373c-0.30699,-1.60306 -0.63355,-3.06515 -0.97969,-4.3855c-0.17699,-0.74319 -0.09084,-1.41902 0.25843,-2.0283c0.34849,-0.61005 0.88963,-1.01963 1.62264,-1.22951c0.37433,-0.0744 0.73535,-0.08458 1.08385,-0.03054z" fill="#e25757" fill-rule="evenodd" stroke-linejoin="round"/><path d="M155.26679,156.6136c0.34692,-0.05325 0.71421,-0.03759 1.10029,0.04777c0.73535,0.20909 1.28589,0.6218 1.65318,1.23734c0.3665,0.61632 0.46283,1.31017 0.28976,2.08311c-0.2506,0.94445 -0.54897,1.99932 -0.89355,3.16304c-0.34458,1.16372 -0.73614,2.40654 -1.17469,3.72689c3.91719,0.38843 7.14915,1.71348 9.69509,3.97593c2.54594,2.26245 4.279,5.00965 5.1976,8.2424c0.91861,3.23274 0.89511,6.49916 -0.0697,9.80003c-0.28639,0.97878 -0.66688,1.92085 -1.14149,2.8262c-2.59914,0.36733 -5.2,0.72634 -7.80227,1.07838c1.75661,-1.526 2.97333,-3.28215 3.65062,-5.26798c0.80584,-2.36582 0.89511,-4.70737 0.26548,-7.02542c-0.62885,-2.31805 -1.92884,-4.26177 -3.8984,-5.83115c-1.96956,-1.57017 -4.56171,-2.41516 -7.77644,-2.53654c-0.74867,2.13323 -1.91944,4.8358 -3.5131,8.10927c-1.59444,3.27268 -3.44654,6.53362 -5.55784,9.78202c-1.34368,2.06735 -2.72511,3.89396 -4.14468,5.47982c-4.73845,0.58958 -9.47867,1.16816 -14.21871,1.74386c-0.01424,-0.02342 -0.02837,-0.04696 -0.04241,-0.07061c-1.08776,-1.83408 -1.56077,-4.05894 -1.41981,-6.67536c0.14175,-2.61642 0.89746,-5.33465 2.26793,-8.15469c1.37047,-2.82004 3.35491,-5.45212 5.95489,-7.89626c-0.3759,-1.8192 -0.6727,-3.69322 -0.89198,-5.62206c-0.21849,-1.92884 -0.35945,-3.89683 -0.4221,-5.90398c0.01723,-0.79957 0.28036,-1.45505 0.79017,-1.96565c0.50903,-0.50981 1.16372,-0.77373 1.96251,-0.79017c0.74162,0.02193 1.36969,0.29054 1.88498,0.80584c0.51451,0.51608 0.78313,1.14493 0.80505,1.88733c0.02741,1.16372 0.09789,2.42221 0.21144,3.77388c0.11355,1.35246 0.29367,2.76678 0.54036,4.24376c1.66336,-1.0071 3.49117,-1.85836 5.48345,-2.55221c1.99227,-0.69463 4.13412,-1.20053 6.42398,-1.51926c0.47144,-1.32192 0.92331,-2.67124 1.35559,-4.04798c0.43229,-1.37673 0.83638,-2.74172 1.21384,-4.09496c0.20909,-0.7377 0.6218,-1.29842 1.23812,-1.68372c0.30777,-0.19187 0.63511,-0.3156 0.98282,-0.36885zM132.7668,183.35421c-0.67036,1.09481 -1.17939,2.17787 -1.52788,3.24919c-0.8168,3.03696 -1.00475,5.33622 -0.56228,6.89699c0.44168,1.56155 1.40963,2.0792 2.90226,1.55215c1.49342,-0.52626 3.40816,-2.40341 5.74344,-5.63067c-0.81837,-1.34933 -1.578,-2.80046 -2.2789,-4.3534c-0.7009,-1.55294 -1.32035,-3.19201 -1.85679,-4.91723c-0.94367,1.03999 -1.75029,2.10817 -2.41985,3.20297zM143.7799,174.08357c-1.42216,0.60614 -2.7613,1.33445 -4.01822,2.18414c0.34144,1.318 0.75415,2.62817 1.23734,3.93051c0.48319,1.30234 1.05252,2.58118 1.70721,3.83653c0.84891,-1.50203 1.73619,-3.19515 2.66341,-5.08092c0.92722,-1.88577 1.87715,-3.97123 2.85136,-6.25639c-1.53962,0.31717 -3.01972,0.77921 -4.4411,1.38613zM135.18665,180.15122c0,0.00001 0,0.00001 0,0.00002c0,0 0,0 0.00001,-0.00001zM148.22099,172.69744v0h0.00001v0z" fill="#ececec" fill-rule="nonzero" stroke-linejoin="miter"/><path d="M75.31749,154.6268c0.34849,0.05325 0.68445,0.17072 1.0071,0.35162c0.6453,0.36102 1.07523,0.92252 1.29059,1.68372c0.34536,1.29216 0.67114,2.74877 0.97734,4.36984c0.3062,1.62107 0.58499,3.35961 0.83638,5.21562c2.06589,-0.55367 4.00804,-1.20131 5.82489,-1.94215c0.71264,-0.27174 1.40179,-0.27723 2.06745,-0.01566c0.66566,0.26078 1.16686,0.72517 1.5036,1.39396c0.30307,0.71343 0.32343,1.40023 0.06265,2.05884c-0.26078,0.65939 -0.74162,1.1418 -1.44095,1.44878c-1.16138,0.46909 -2.36269,0.90686 -3.60238,1.3133c-1.23969,0.40644 -2.50287,0.78234 -3.78954,1.12613c0.12765,1.41119 0.24747,2.86311 0.36024,4.35496c0.11199,1.49107 0.20048,3.00564 0.26548,4.54135c3.18184,-1.38143 6.32531,-2.24679 9.42883,-2.59684c3.10353,-0.35006 6.05904,-0.15114 8.86498,0.59518c3.27425,0.94445 5.77947,2.45275 7.51566,4.5249c1.73541,2.07293 2.7519,4.37376 3.04949,6.90247c0.29759,2.52871 -0.0744,4.95014 -1.11517,7.26349c-0.39875,0.88661 -0.88831,1.70805 -1.46874,2.46435c-5.57794,0.68748 -11.15186,1.38681 -16.7186,2.11126c-0.94507,0.12299 -1.89015,0.24598 -2.83522,0.36898c-0.40588,-0.33032 -0.78767,-0.69131 -1.14537,-1.08301c-0.49728,-0.58734 -0.70873,-1.24204 -0.63433,-1.96408c0.0744,-0.72126 0.41114,-1.36107 1.01023,-1.91866c0.52234,-0.43698 1.12222,-0.64373 1.80119,-0.61867c0.67897,0.02506 1.31017,0.27253 1.89516,0.74397c2.00637,1.52553 4.14038,2.18257 6.40205,1.97113c2.26167,-0.21144 4.14038,-1.0533 5.63615,-2.5248c1.49577,-1.47149 2.09799,-3.33455 1.80745,-5.58917c-0.55054,-2.91244 -1.94842,-5.06682 -4.19285,-6.46079c-2.24444,-1.39475 -5.03941,-1.97504 -8.38336,-1.74011c-3.34473,0.23415 -6.94163,1.33836 -10.79225,3.31184c0.02976,2.13793 0.00157,4.27195 -0.08614,6.40127c-0.08693,2.1301 -0.22554,4.21713 -0.41427,6.26031c-0.25542,1.95632 -0.86207,3.41346 -1.81997,4.37114c-2.23571,0.29096 -4.47143,0.58191 -6.70714,0.87287c-0.45976,-0.1353 -0.93732,-0.29826 -1.43268,-0.48886c-2.2648,-0.89903 -4.10828,-1.98522 -5.53122,-3.25937c-1.42294,-1.27336 -1.98679,-2.84353 -1.69155,-4.70972c0.29524,-1.86619 1.88812,-4.13725 4.77785,-6.81476c1.22403,-1.09638 2.45901,-2.11522 3.70732,-3.05576c1.24752,-0.93975 2.49895,-1.80197 3.75509,-2.5851c-0.03133,-1.81607 -0.09398,-3.59768 -0.18795,-5.34562c-0.09398,-1.74715 -0.22006,-3.4528 -0.37668,-5.11538c-3.56557,0.6359 -7.22042,1.0533 -10.96376,1.25143c-0.77216,0.01175 -1.41981,-0.23102 -1.94137,-0.72752c-0.52234,-0.4965 -0.79331,-1.13005 -0.81445,-1.90065c-0.01018,-0.74005 0.22946,-1.37047 0.72048,-1.89203c0.49024,-0.52156 1.10656,-0.80819 1.84739,-0.85987c1.81842,-0.09163 3.61021,-0.23807 5.37616,-0.43855c1.76595,-0.20126 3.48256,-0.47301 5.14827,-0.81445c-0.25217,-1.82233 -0.53174,-3.53503 -0.83873,-5.1373c-0.30699,-1.60306 -0.63355,-3.06515 -0.97969,-4.3855c-0.17699,-0.74319 -0.09084,-1.41902 0.25843,-2.0283c0.34849,-0.61005 0.88963,-1.01963 1.62264,-1.22951c0.37433,-0.0744 0.73535,-0.08458 1.08385,-0.03054zM75.36292,189.67403c-1.0674,0.75415 -2.05257,1.51691 -2.95552,2.28751c-0.90294,0.7706 -1.71583,1.53336 -2.43865,2.28751c-1.0627,1.05174 -1.55372,1.78553 -1.47306,2.20215c0.08066,0.41662 0.53018,0.78939 1.34776,1.11987c1.77848,0.93662 3.02286,1.54902 3.73316,1.838c0.71029,0.28897 1.1277,0.27488 1.25222,-0.04151c0.12452,-0.31717 0.19813,-0.91547 0.22084,-1.79649c0.06343,-0.86144 0.12373,-2.02125 0.18012,-3.47864c0.05639,-1.4574 0.10024,-2.93046 0.13313,-4.41839z" fill="#ececec" fill-rule="nonzero" stroke-linejoin="miter"/><path d="M394.6213,166.62352c1.95077,-0.3109 3.97201,-0.73927 6.06296,-1.28433c2.09173,-0.54584 4.20695,-1.22481 6.34567,-2.03613c0.71656,-0.24277 1.41432,-0.22711 2.09173,0.04699c0.6774,0.27409 1.17077,0.75963 1.48011,1.45661c0.27331,0.71734 0.27566,1.41198 0.00783,2.08233c-0.26705,0.67036 -0.75023,1.14571 -1.44878,1.42451c-2.43787,0.91078 -5.05116,1.70095 -7.84144,2.36895c-2.79028,0.66879 -5.60796,1.1927 -8.45306,1.57173c-0.66174,2.29612 -1.24909,4.60165 -1.76203,6.91813c-0.51373,2.31649 -0.92879,4.60478 -1.24595,6.86488c3.89057,-3.78798 7.84222,-6.07392 11.85496,-6.85705c4.01352,-0.78313 7.5556,-0.38686 10.6278,1.18957c3.0722,1.57565 5.14279,4.00725 6.21175,7.29638c0.44403,1.46758 0.4871,3.24214 0.12922,5.32369c-0.35789,2.08155 -1.34071,4.12081 -2.94768,6.11778c-1.60697,1.99619 -4.06207,3.60081 -7.3653,4.81309c-3.30244,1.21228 -7.6762,1.68294 -13.12127,1.41276c-0.74005,-0.08379 -1.34306,-0.40253 -1.8098,-0.95541c-0.46596,-0.55367 -0.6774,-1.21698 -0.63433,-1.98914c0.08771,-0.7377 0.41427,-1.33053 0.97969,-1.7777c0.56542,-0.44795 1.22011,-0.64921 1.96565,-0.60301c5.01122,0.27566 8.97775,-0.19265 11.89959,-1.40414c2.92184,-1.2115 4.81309,-2.8169 5.67453,-4.81466c0.86066,-1.99854 0.7056,-4.03936 -0.46518,-6.12326c-1.02746,-1.77143 -2.75973,-2.98136 -5.19682,-3.62979c-2.4363,-0.64843 -5.17646,-0.37825 -8.2189,0.81053c-3.04244,1.18878 -5.98621,3.6525 -8.83209,7.39271c-0.45891,0.66252 -1.05879,1.13788 -1.79962,1.42529c-0.74084,0.28662 -1.49655,0.35476 -2.26793,0.20361c-0.79644,-0.24042 -1.42529,-0.68445 -1.88498,-1.33131c-0.46048,-0.64764 -0.66644,-1.3736 -0.61789,-2.17709c0.28584,-2.94534 0.70011,-5.88676 1.2436,-8.82348c0.54349,-2.93672 1.1927,-5.86404 1.94763,-8.78119c-1.22324,0.09006 -2.40733,0.12922 -3.55226,0.11747c-1.14571,-0.01175 -2.23661,-0.0509 -3.27268,-0.11747c-0.76746,-0.05482 -1.3783,-0.35241 -1.83251,-0.89198c-0.45421,-0.53957 -0.65783,-1.18095 -0.61084,-1.92336c0.05325,-0.76511 0.35397,-1.37752 0.90059,-1.838c0.54662,-0.45969 1.20758,-0.68132 1.98131,-0.66487c0.94758,0.03446 2.09016,0.04464 3.42852,0.03133c1.33836,-0.01253 2.82473,-0.065 4.45912,-0.15584c0.32587,-1.11091 0.66077,-2.21162 1.00471,-3.30212c2.03739,-0.35456 4.07479,-0.70913 6.11218,-1.06369c-0.41895,1.19974 -0.82822,2.4253 -1.22782,3.67668z" fill="#ececec" fill-rule="nonzero" stroke-linejoin="miter"/><path d="M325.37577,182.78488c2.27811,-1.45975 4.33147,-2.01498 6.16242,-1.66649c1.83016,0.34771 3.30322,1.34149 4.41996,2.97979c0.97186,1.6195 1.52553,3.35491 1.66258,5.207c0.13705,1.85209 0.41271,3.49509 0.82855,4.92978c0.41506,1.43469 1.52631,2.33528 3.33298,2.70335c2.68221,0.42132 5.16471,-0.4221 7.44752,-2.5295c2.28281,-2.10739 4.24846,-5.37772 5.89694,-9.81021c0.30385,-0.76198 0.79174,-1.30155 1.46444,-1.61872c0.67192,-0.31638 1.39475,-0.33988 2.16926,-0.07048c0.73457,0.30933 1.26945,0.81758 1.60541,1.52553c0.33518,0.70795 0.38451,1.45035 0.14879,2.22878c-1.47854,4.12081 -3.28365,7.4209 -5.4161,9.90106c-2.13245,2.47938 -4.36906,4.22575 -6.7106,5.23676c-2.34155,1.01102 -4.56406,1.3736 -6.66831,1.08854c-2.90931,-0.44951 -4.98303,-1.41902 -6.22037,-2.90775c-1.23812,-1.48872 -2.02595,-3.1513 -2.36426,-4.98616c-0.33909,-1.83565 -0.61397,-3.49822 -0.82698,-4.98694c-0.21223,-1.48872 -0.74788,-2.45823 -1.60697,-2.90696c-1.49029,-0.58343 -3.25467,0.14566 -5.29393,2.18492c-2.03848,2.04004 -4.24141,5.32134 -6.60958,9.84389c-0.15741,0.4409 -0.31168,0.88963 -0.46204,1.34698c-0.14958,0.45656 -0.28819,0.90529 -0.41506,1.34698c-0.27488,0.73614 -0.7424,1.28433 -1.40179,1.64456c-0.65861,0.36024 -1.36107,0.43855 -2.10661,0.23494c-0.76746,-0.21458 -1.33131,-0.64764 -1.69155,-1.29999c-0.36024,-0.65313 -0.42289,-1.36812 -0.18795,-2.14576c1.52005,-4.6502 3.4434,-9.66847 5.77085,-15.05481c1.40275,-3.24681 2.82569,-6.4151 4.26884,-9.50488c2.19855,-0.38261 4.3971,-0.76522 6.59566,-1.14783c-1.27367,2.66117 -2.53763,5.40564 -3.79209,8.23362z" fill="#ececec" fill-rule="nonzero" stroke-linejoin="miter"/><path d="M206.7479,155.02543c0.34458,-0.00548 0.69463,0.05952 1.05095,0.19578c0.70246,0.3062 1.20915,0.78939 1.52005,1.44878c0.3109,0.65861 0.34692,1.34541 0.10964,2.05962c-0.47144,1.253 -0.93897,2.53733 -1.40179,3.85298c-0.46361,1.31565 -0.91547,2.66263 -1.35559,4.04093c1.95077,-0.3109 3.97201,-0.73927 6.06296,-1.28433c2.09173,-0.54584 4.20695,-1.22481 6.34567,-2.03613c0.71656,-0.24277 1.41432,-0.22711 2.09173,0.04699c0.6774,0.27409 1.17077,0.75963 1.48011,1.45661c0.27331,0.71734 0.27566,1.41198 0.00783,2.08233c-0.26705,0.67036 -0.75023,1.14571 -1.44878,1.42451c-2.43787,0.91078 -5.05116,1.70095 -7.84144,2.36895c-2.79028,0.66879 -5.60796,1.1927 -8.45306,1.57173c-0.66174,2.29612 -1.24909,4.60165 -1.76203,6.91813c-0.51373,2.31649 -0.92879,4.60478 -1.24595,6.86488c3.89057,-3.78798 7.84222,-6.07392 11.85496,-6.85705c4.01352,-0.78313 7.5556,-0.38686 10.6278,1.18957c1.10293,0.56566 2.07677,1.24164 2.92152,2.02802c-2.79558,0.49103 -5.59159,0.979 -8.38812,1.46304c-2.23519,-0.40513 -4.71298,-0.07644 -7.43225,0.98607c-0.35766,0.13975 -0.71396,0.29712 -1.06889,0.47211c-4.67655,0.79438 -9.35481,1.5754 -14.0352,2.3391c0.25299,-2.04258 0.56796,-4.08317 0.94519,-6.12148c0.54349,-2.93672 1.1927,-5.86404 1.94763,-8.78119c-1.22324,0.09006 -2.40733,0.12922 -3.55226,0.11747c-1.14571,-0.01175 -2.23661,-0.0509 -3.27268,-0.11747c-0.76746,-0.05482 -1.3783,-0.35241 -1.83251,-0.89198c-0.45421,-0.53957 -0.65783,-1.18095 -0.61084,-1.92336c0.05325,-0.76511 0.35397,-1.37752 0.90059,-1.838c0.54662,-0.45969 1.20758,-0.68132 1.98131,-0.66487c0.94758,0.03446 2.09016,0.04464 3.42852,0.03133c1.33836,-0.01253 2.82473,-0.065 4.45912,-0.15584c0.53409,-1.82077 1.09246,-3.61412 1.67511,-5.38007c0.58186,-1.76595 1.17156,-3.48099 1.76986,-5.14514c0.33674,-0.73144 0.83794,-1.24282 1.50438,-1.53493c0.33283,-0.14644 0.67114,-0.22241 1.0165,-0.22711z" fill="#ececec" fill-rule="nonzero" stroke-linejoin="miter"/><path d="M230.73193,192.98978c-0.35789,2.08155 -1.34071,4.12081 -2.94768,6.11778c-1.60697,1.99619 -4.06207,3.60081 -7.3653,4.81309c-3.30244,1.21228 -7.6762,1.68294 -13.12127,1.41276c-0.74005,-0.08379 -1.34306,-0.40253 -1.8098,-0.95541c-0.46596,-0.55367 -0.6774,-1.21698 -0.63433,-1.98914c0.08771,-0.7377 0.41427,-1.33053 0.97969,-1.7777c0.56463,-0.44795 1.22011,-0.64921 1.96565,-0.60301c5.01122,0.27566 8.97775,-0.19265 11.89959,-1.40414c2.92184,-1.2115 4.81309,-2.8169 5.67453,-4.81466c0.13694,-0.318 0.24817,-0.63706 0.33368,-0.95721c1.72565,-0.30151 3.45111,-0.60432 5.17642,-0.90823c-0.03809,0.34586 -0.08848,0.70115 -0.15119,1.06586z" fill="#ececec" fill-rule="nonzero" stroke-linejoin="miter"/><path d="M295.07272,180.87642c-0.09867,2.29534 -0.89511,4.41605 -2.38932,6.36368c-1.4942,1.94685 -3.74569,3.36274 -6.75368,4.24846c-1.64848,0.46674 -3.41051,0.65939 -5.2861,0.57873c-1.87559,-0.08066 -3.74726,-0.41976 -5.61501,-1.0165c-0.72831,-0.24668 -1.24517,-0.69228 -1.55059,-1.33758c-0.30542,-0.64451 -0.35241,-1.32505 -0.14096,-2.04083c0.2412,-0.67192 0.66722,-1.15981 1.27649,-1.46366c0.60927,-0.30464 1.27023,-0.33831 1.98131,-0.10181c5.32525,1.7542 9.39751,1.06427 12.21676,-2.06902c0.72492,-0.88814 1.18547,-1.78796 1.38196,-2.69946c1.62986,-0.28627 3.25979,-0.57148 4.88982,-0.85546c-0.00146,0.13054 -0.00502,0.26169 -0.01068,0.39344z" fill="#ececec" fill-rule="nonzero" stroke-linejoin="miter"/><path d="M277.15871,201.76238c0.26861,0.67975 0.26391,1.32427 -0.01566,1.93432c-0.27958,0.60927 -0.75415,1.05017 -1.42529,1.32348c-0.67975,0.26861 -1.32505,0.26313 -1.93432,-0.01566c-0.60927,-0.27958 -1.05095,-0.75493 -1.32348,-1.42529l-6.97795,-17.84022c1.68998,-0.30355 3.37994,-0.60687 5.06991,-0.90979z" fill="#ececec" fill-rule="nonzero" stroke-linejoin="miter"/><path d="M96.71875,166.87411c2.71588,0.19656 5.30333,0.72674 7.76077,1.58896c2.45745,0.86144 4.65333,2.00089 6.58609,3.41834c0.6265,0.46596 0.98674,1.06662 1.08071,1.79962c0.09398,0.73301 -0.07831,1.42842 -0.51686,2.08468c-0.46361,0.59752 -1.03999,0.94053 -1.73071,1.02824c-0.69072,0.08771 -1.34541,-0.08771 -1.96565,-0.52626c-1.60932,-1.1324 -3.40268,-2.03613 -5.38007,-2.71196c-1.97739,-0.67584 -4.06834,-1.10891 -6.27284,-1.29921c-0.73849,-0.08223 -1.34463,-0.38686 -1.81685,-0.91469c-0.47222,-0.52783 -0.70246,-1.16138 -0.68915,-1.90065c0.08379,-0.77216 0.40174,-1.40336 0.95541,-1.89438c0.55367,-0.49024 1.21619,-0.71499 1.98914,-0.6727z" fill="#ececec" fill-rule="nonzero" stroke-linejoin="miter"/><path d="M275.30271,165.82473c0.70325,0.08066 1.30155,0.38843 1.79336,0.92409c0.92957,1.1277 1.76438,2.37992 2.506,3.75744c3.37919,-0.94288 6.2376,-0.98909 8.57523,-0.13861c0.65983,0.23998 1.27346,0.52292 1.84091,0.84884c-6.1616,1.07959 -12.32203,2.17508 -18.48225,3.27738c1.167,-0.70569 2.24723,-1.34677 3.24206,-1.92328c-0.28036,-0.52939 -0.58108,-1.03451 -0.90059,-1.51691c-0.31952,-0.48241 -0.66722,-0.95698 -1.04156,-1.42294c-0.43229,-0.5615 -0.60144,-1.16216 -0.50903,-1.80119c0.09241,-0.63981 0.40879,-1.1465 0.94758,-1.51926c0.64843,-0.40488 1.32505,-0.56698 2.0283,-0.48554z" fill="#ececec" fill-rule="nonzero" stroke-linejoin="miter"/><path d="M334.66363,155.76313c0.35319,0.03916 0.7009,0.15114 1.04469,0.33518c0.69698,0.37198 1.14806,0.91234 1.35246,1.62107c0.2044,0.70873 0.10807,1.42137 -0.28897,2.13793c-0.63513,1.11606 -1.29137,2.30373 -1.96873,3.56296c-2.26903,0.39488 -4.53807,0.78975 -6.8071,1.18463c1.41699,-2.78375 2.71553,-5.24344 3.8954,-7.37887c0.40644,-0.69698 0.97186,-1.15119 1.69782,-1.36264c0.36337,-0.10572 0.72126,-0.1394 1.07445,-0.10024z" fill="#ececec" fill-rule="nonzero" stroke-linejoin="miter"/><path d="M259.92994,171.5071c-0.24277,-0.64999 -0.22711,-1.28902 0.04699,-1.91631c0.27409,-0.62728 0.75963,-1.09481 1.45661,-1.40101c0.67975,-0.23885 1.32505,-0.21536 1.93432,0.07048c0.60927,0.28584 1.05095,0.76355 1.32348,1.43312l2.20585,5.63168c-1.70344,0.3056 -3.40688,0.61154 -5.11035,0.91764z" fill="#ececec" fill-rule="nonzero" stroke-linejoin="miter"/><path d="M255.79505,187.48522c-0.07338,0.01422 -0.1459,0.02554 -0.21755,0.03394c0.10643,-0.01913 0.21286,-0.03825 0.31929,-0.05738c-0.03391,0.00787 -0.06782,0.01569 -0.10174,0.02344z" fill="#333333" fill-rule="nonzero" stroke-linejoin="miter"/></g></g></svg>