<svg version="1.1" xmlns="http://www.w3.org/2000/svg" xmlns:xlink="http://www.w3.org/1999/xlink" width="432.86448" height="91.01036" viewBox="0,0,432.86448,91.01036"><g transform="translate(-23.56776,-134.49482)"><g data-paper-data="{&quot;isPaintingLayer&quot;:true}" fill="#3e3e3e" fill-rule="nonzero" stroke="none" stroke-width="1" stroke-linecap="butt" stroke-linejoin="miter" stroke-miterlimit="10" stroke-dasharray="" stroke-dashoffset="0" style="mix-blend-mode: normal"><path d="M52.53063,206.80048c-0.84977,-0.48577 -3.21367,-0.89638 -5.25312,-0.91245c-2.03945,-0.01607 -5.23767,-0.4398 -7.10716,-0.94159c-1.86949,-0.50179 -4.09435,-0.91565 -4.94412,-0.91969c-2.0173,-0.00958 -8.42542,-4.57433 -9.59405,-6.8342c-1.75443,-3.3927 -1.2755,-4.44125 4.4004,-9.63413c2.92191,-2.67326 6.05061,-5.24291 6.95266,-5.71034c0.90205,-0.46743 2.0688,-1.22286 2.59278,-1.67874c0.52399,-0.45588 3.30504,-1.69955 6.18014,-2.76371c8.42505,-3.11839 9.2092,-3.42588 9.45828,-3.70884c0.13025,-0.14798 0.42801,-1.76588 0.66168,-3.59534l0.42486,-3.32629l-2.9677,0.35c-2.99501,0.35322 -16.70067,3.5339 -23.74509,5.51055c-3.24742,0.91122 -5.7307,-0.37943 -5.99386,-3.11523c-0.10817,-1.12454 0.1006,-2.40282 0.46395,-2.84062c0.36359,-0.43809 2.69433,-0.96791 5.18361,-1.17833c2.48764,-0.21028 6.86762,-0.94439 9.73328,-1.63135c2.86566,-0.68696 5.97886,-1.25097 6.91821,-1.25334c0.93935,-0.00247 2.19083,-0.26255 2.78106,-0.57814c0.59023,-0.3156 2.71859,-0.87179 4.7297,-1.23601c2.01111,-0.36422 3.79585,-0.8015 3.9661,-0.97174c0.4634,-0.4634 1.27876,-6.39751 2.18735,-15.91947c0.44629,-4.67709 0.98499,-8.67735 1.19711,-8.88947c0.93998,-0.93998 3.38321,-0.58065 5.04125,0.74142l1.80582,1.43992l-0.72432,3.89787c-1.51752,8.16652 -2.72208,16.52955 -2.48378,17.24445c0.18106,0.54316 2.69184,0.70823 9.29861,0.61134c9.39891,-0.13783 11.01417,0.18668 12.22919,2.45695c0.94452,1.76486 0.1968,3.52669 -1.97292,4.64869c-1.70083,0.87954 -2.05534,0.87436 -4.02175,-0.05877c-1.71104,-0.81194 -3.60429,-0.98067 -9.16538,-0.81683c-3.85488,0.11357 -7.16142,0.3598 -7.34787,0.54717c-0.18644,0.18737 -0.52299,1.90617 -0.74787,3.81957l-0.40888,3.47889l2.08858,0.31397c1.14871,0.17269 5.00869,0.61894 8.57772,0.99168c3.56903,0.37273 8.01873,0.97105 9.88822,1.32959c4.90323,0.94037 14.57773,5.28145 18.61344,8.35211c3.37349,2.56679 7.34314,7.74596 7.34314,9.58051c0,1.17127 -3.60689,4.5968 -5.41314,5.14096c-0.76782,0.23131 -2.40644,1.62933 -3.64136,3.1067c-2.00139,2.39429 -2.74196,2.80308 -6.81672,3.76267c-2.51427,0.5921 -4.71603,1.31056 -4.8928,1.59658c-0.54682,0.88479 -3.91824,0.57361 -5.57967,-0.51499c-2.25853,-1.47985 -2.97494,-3.71095 -1.77811,-5.53754c0.97751,-1.49186 3.02227,-1.95678 3.71026,-0.8436c0.59263,0.9589 2.92263,0.73185 5.27695,-0.51421c5.33194,-2.82202 6.56948,-3.60905 8.15131,-5.18392c2.66457,-2.65284 1.59237,-4.32308 -5.22122,-8.13345c-6.322,-3.53546 -12.37794,-5.19969 -21.91074,-6.02124c-6.63021,-0.57141 -8.45968,-0.56133 -8.83669,0.0487c-0.60412,0.97749 -1.49704,21.99957 -0.97062,22.85135c0.43201,0.69901 -0.69189,3.17906 -1.76557,3.89597c-1.12425,0.75068 -4.90167,0.48887 -6.55113,-0.45405zM53.35542,198.80984c0.5125,-1.33555 1.26736,-17.65694 0.81663,-17.65694c-0.71696,0 -8.73857,3.26525 -9.3357,3.80016c-0.32291,0.28927 -1.01818,0.52942 -1.54503,0.53368c-1.03993,0.00841 -4.49921,2.64898 -8.30441,6.33901c-2.31584,2.24576 -2.36331,2.37284 -1.31785,3.52806c2.72133,3.00705 18.77703,5.82569 19.68636,3.45602z"/><path d="M156.51653,209.95036c-0.96311,-1.27465 -2.52442,-3.15187 -3.46957,-4.17159c-0.94516,-1.01972 -1.71976,-2.06262 -1.72133,-2.31755c-0.00859,-1.38822 -2.68798,-0.10617 -4.74438,2.27008c-3.5568,4.11004 -5.33056,4.03237 -10.31594,-0.45166l-3.6242,-3.25974l-0.63153,-6.12778c-0.6993,-6.7853 -0.06703,-10.83534 2.21935,-14.21589c0.68967,-1.01972 1.82828,-2.68836 2.53024,-3.70808c1.17853,-1.71201 1.27735,-2.7536 1.28996,-13.5963c0.00754,-6.45825 0.23251,-12.0899 0.49999,-12.51478c0.98864,-1.57044 5.64941,-0.30148 6.2885,1.71213c0.18522,0.58357 0.05377,3.53101 -0.29206,6.54986c-0.82674,7.21649 -0.80067,8.26988 0.20471,8.26988c0.46402,0 1.50989,-0.52404 2.32414,-1.16454c0.81426,-0.64049 3.29666,-2.14516 5.51645,-3.3437c3.56077,-1.92258 4.90618,-2.26666 11.42667,-2.9223c4.06488,-0.40873 7.69349,-0.82487 8.06357,-0.92477c0.744,-0.20083 3.96222,-6.65247 3.96222,-7.94317c0,-1.29566 2.11516,-2.85995 3.8671,-2.85995c3.98295,0 4.64831,3.94474 1.38602,8.21724c-1.18967,1.55807 -2.16305,3.10353 -2.16305,3.43435c0,0.33083 1.87722,1.20159 4.17159,1.93503c8.41042,2.68856 16.22202,7.10247 18.92773,10.69504c3.03494,4.02973 4.15642,10.04521 2.89021,15.50284c-1.07143,4.6181 -10.3603,16.45475 -12.91295,16.45475c-1.14742,0 -1.33432,-0.35056 -1.33432,-2.50275c0,-2.87282 1.04205,-5.17947 4.31365,-9.54852c4.02072,-5.36946 4.72988,-9.79421 2.32999,-14.53799c-1.85068,-3.65819 -5.3797,-6.19994 -12.33008,-8.88065c-7.19801,-2.77622 -9.38512,-3.23004 -10.29114,-2.13542c-1.48019,1.78831 -6.27092,9.21784 -6.27092,9.72503c0,0.29498 -0.42229,0.88681 -0.93842,1.31517c-0.51613,0.42835 -1.36655,1.68102 -1.8898,2.78369c-0.52326,1.10269 -3.12619,5.02739 -5.78431,8.72156c-4.58083,6.36632 -4.79047,6.79994 -4.01903,8.31262c1.19404,2.34133 5.15172,6.96971 6.51085,7.6142c2.58813,1.22731 0.3936,5.9312 -2.76713,5.9312c-0.97729,0 -2.05994,-0.77855 -3.22278,-2.31755zM152.75014,189.79418c0.44076,-1.14861 6.80095,-9.92094 7.37933,-10.17799c0.25493,-0.1133 0.46351,-0.48748 0.46351,-0.8315c0,-0.34402 1.65225,-3.09562 3.67166,-6.11468c2.01941,-3.01905 3.47091,-5.61325 3.22556,-5.76488c-0.24534,-0.15163 -2.78509,0.1302 -5.64386,0.62631c-5.62106,0.97546 -9.82705,2.99764 -13.76814,6.61953c-2.35742,2.16648 -2.75996,3.56518 -1.75723,6.10566c2.59425,6.57265 3.40841,8.35891 4.23859,9.29928c1.14812,1.30052 1.75752,1.36681 2.19058,0.23827zM144.45128,198.55428c2.27597,-2.32791 2.28688,-2.41493 0.69135,-5.51516c-0.67981,-1.32093 -1.79224,-3.48246 -2.47206,-4.80339c-0.67982,-1.32093 -1.23602,-2.87369 -1.23602,-3.45058c0,-1.88435 -1.52143,-0.59628 -2.59295,2.19524c-1.82153,4.74543 -1.27083,9.19062 1.50582,12.15473c1.67296,1.78592 1.80871,1.76671 4.10386,-0.58084z"/><path d="M423.52298,224.52428c-1.69486,-1.88036 -1.32012,-3.18191 1.23603,-4.29291c11.0948,-4.82224 15.97875,-8.97024 19.71984,-16.74828c3.46553,-7.20514 2.59921,-10.02481 -4.33781,-14.11889c-5.82391,-3.43714 -11.84341,-4.80147 -19.32615,-4.38032c-3.44392,0.19384 -6.81683,0.20726 -7.49533,0.02979c-1.22326,-0.31986 -2.62035,-2.57279 -2.62035,-4.2255c0,-0.79984 2.72327,-3.99686 9.12654,-10.71425c1.45057,-1.52173 2.50414,-2.90004 2.34126,-3.06292c-0.16288,-0.16287 -2.94573,0.03739 -6.18413,0.44499c-6.74203,0.84862 -7.86007,0.63866 -9.59839,-1.80258c-1.00117,-1.40601 -1.13324,-2.08986 -0.64937,-3.36253c0.33407,-0.87866 0.82286,-1.61282 1.0862,-1.63147c0.26334,-0.01866 4.23324,-0.12609 8.822,-0.23875c10.66379,-0.26183 15.11691,-0.83821 16.63267,-2.15282c0.66629,-0.57788 1.95697,-1.58955 2.86815,-2.24817c3.44811,-2.49232 7.92386,-6.84509 9.33361,-9.07716c1.54543,-2.44687 2.95289,-2.86953 5.35147,-1.60702c3.08821,1.62552 3.18234,4.80849 0.20221,6.83786c-3.47534,2.36655 -7.26536,6.05292 -6.87407,6.68604c0.20324,0.32885 2.46553,0.5979 5.02726,0.5979c5.57826,0 8.24764,1.38927 8.24764,4.29251c0,2.49149 -1.3197,3.33383 -4.46898,2.85245c-4.42838,-0.67688 -14.66814,-1.10639 -16.80777,-0.70499c-1.44167,0.27046 -3.4155,1.79287 -6.90299,5.32426c-2.68622,2.72002 -4.88403,5.42339 -4.88403,6.00747c0,0.82665 0.94468,1.23318 4.26315,1.83462c8.09229,1.46664 14.55639,4.22289 20.36127,8.68191c4.15942,3.19506 5.96167,5.79579 5.96495,8.60767c0,2.81897 -1.13739,7.58312 -2.35537,9.83754c-3.14279,5.81688 -3.93039,7.04665 -5.55162,8.66783c-0.97726,0.97729 -1.89185,2.05232 -2.0324,2.38896c-0.26031,0.62354 -7.53291,5.24717 -8.25337,5.24717c-0.21746,0 -1.14891,0.55476 -2.0699,1.23279c-1.00482,0.73974 -3.15751,1.38553 -5.3826,1.61472c-3.18221,0.32779 -3.86146,0.21179 -4.78961,-0.81793z"/><path d="M323.40306,218.48615c-0.75166,-1.78033 -0.72186,-2.2192 0.26232,-3.86258c0.61068,-1.01972 1.74387,-3.80079 2.51821,-6.18014c0.77434,-2.37936 1.75319,-4.88231 2.17523,-5.56212c0.42204,-0.67981 0.96411,-1.93129 1.20461,-2.78106c0.2405,-0.84977 1.06532,-3.07462 1.83296,-4.94411c0.76763,-1.86949 1.75167,-4.5115 2.18675,-5.87113c0.43507,-1.35963 1.69323,-4.4188 2.79589,-6.79816c1.10266,-2.37936 2.19902,-5.50157 2.43634,-6.93826c0.23732,-1.43669 1.09327,-3.52249 1.90212,-4.63511c0.80885,-1.11262 2.49064,-3.96968 3.73732,-6.34903c1.24668,-2.37936 2.9019,-5.08423 3.67825,-6.01083c0.77635,-0.9266 1.59632,-2.52597 1.82214,-3.55416c0.45502,-2.07166 2.29937,-2.89707 4.9737,-2.22586c3.08215,0.77357 2.78628,3.54671 -0.86855,8.14097c-3.45873,4.34776 -8.20707,13.17077 -10.61191,19.71823c-6.47021,17.61597 -6.4699,17.53255 -0.04066,10.80284l4.88272,-5.11092l2.68448,0.36006c1.9248,0.25817 3.08856,0.85192 4.11238,2.09815c1.55529,1.89315 3.88164,5.9538 4.53636,7.91823c3.07635,9.23023 6.27711,15.08124 8.90516,16.27866c4.06372,1.85155 14.70414,-0.0943 22.95725,-4.19827c2.78576,-1.38526 5.91445,-2.68853 6.95265,-2.89617c1.77916,-0.35583 1.88765,-0.26774 1.88765,1.53279c0,1.05068 -0.47039,2.89674 -1.04532,4.10237c-0.82616,1.73248 -1.57118,2.32436 -3.55358,2.82313c-1.37955,0.34709 -3.20353,0.92963 -4.0533,1.29452c-5.91438,2.53963 -12.91825,4.19279 -18.33967,4.32882c-3.47384,0.08716 -4.7629,-0.17843 -7.30791,-1.50565c-4.85093,-2.52976 -8.38691,-7.47507 -11.14002,-15.58007c-3.4153,-10.05447 -4.5101,-10.47467 -10.0639,-3.86259c-2.06991,2.46433 -4.98592,5.62472 -6.48004,7.02309c-3.51096,3.28596 -5.40195,5.92296 -7.26195,10.12679c-1.76988,4.00015 -2.10733,4.30417 -4.79131,4.31663c-1.71765,0.00797 -2.17181,-0.30657 -2.88639,-1.99908z"/><path d="M245.51469,212.5783c-1.72126,-0.48069 -2.59045,-2.80761 -1.82334,-4.88133c0.40624,-1.09816 0.99194,-1.37318 2.92447,-1.37318c6.95463,0 14.30971,-7.42577 14.30971,-14.44726c0,-2.49945 -2.27864,-6.79916 -5.06556,-9.55848c-4.50612,-4.46151 -11.86652,-5.02565 -18.90498,-1.44897c-4.26508,2.16735 -6.94513,2.48493 -8.43104,0.99902c-1.41135,-1.41135 -1.19006,-4.23432 0.48941,-6.24308c0.80332,-0.96082 2.06045,-2.92891 2.79362,-4.37351c1.71131,-3.37187 1.51934,-3.36734 -7.98718,0.18879c-8.96791,3.35466 -10.81881,3.32564 -11.47646,-0.17997c-0.49647,-2.64637 0.273,-4.11172 2.29427,-4.36915c2.90374,-0.36981 9.01338,-2.01641 16.77348,-4.5206l7.87539,-2.5414l1.81111,-3.17278c0.99612,-1.74504 2.00557,-3.95355 2.24325,-4.90781c0.23766,-0.95426 1.07841,-2.15849 1.86832,-2.67606c1.23141,-0.80686 1.68325,-0.82164 3.16867,-0.1037c1.43415,0.69315 1.71954,1.20716 1.65743,2.98507c-0.04128,1.18125 -0.277,2.75329 -0.52386,3.4934c-0.41921,1.25688 -0.26734,1.33865 2.30146,1.23923c3.41509,-0.13217 4.78657,0.92345 4.78657,3.68416c0,2.53842 -0.76958,2.92254 -7.60018,3.79353c-3.01844,0.38488 -5.26787,1.02061 -6.02011,1.70138c-1.56451,1.41587 -4.51551,6.46003 -4.05105,6.9245c0.19802,0.19801 1.91631,-0.01335 3.81844,-0.46964c3.96236,-0.95056 8.94294,-0.2312 13.61967,1.96713c5.98339,2.81252 11.51753,11.76999 11.58353,18.7489c0.05716,6.04679 -4.0865,13.31198 -9.03274,15.83728c-1.27466,0.65078 -2.31756,1.4449 -2.31756,1.76473c0,0.72885 -5.85975,2.50458 -7.99184,2.42184c-0.87305,-0.03386 -2.26486,-0.2508 -3.09289,-0.48204z"/><path d="M292.52044,216.63596c-0.68725,-0.87369 -1.39218,-2.75091 -1.56651,-4.1716c-2.05129,-16.71642 -1.93456,-16.2211 -4.02755,-17.08805c-2.43773,-1.00974 -3.46595,-3.43727 -2.24512,-5.3005c0.51254,-0.78224 1.53333,-1.61314 2.26842,-1.84644c1.27348,-0.40419 1.31435,-0.6469 0.86631,-5.14549c-0.25862,-2.59671 -0.50502,-5.97277 -0.54755,-7.50235l-0.07732,-2.78106l2.5686,-0.18721c3.2329,-0.23562 4.53855,1.33938 4.53855,5.47483c0,1.56725 0.18504,3.0346 0.4112,3.26075c0.22616,0.22616 1.19777,-0.96603 2.15913,-2.64932c1.42176,-2.48942 2.14482,-3.13497 3.8748,-3.45952c3.73338,-0.70039 4.41363,0.9604 2.18369,5.33145c-1.40913,2.76213 -1.18924,3.66227 0.89464,3.66227c0.77899,0 2.28036,0.3012 3.33639,0.66932c4.84037,1.68736 2.74041,12.92698 -2.41521,12.92698c-1.52072,0 -2.48086,-1.96555 -2.0391,-4.17435c0.24723,-1.23615 0.03727,-2.1269 -0.66749,-2.83165c-1.57027,-1.57027 -1.82002,-1.46519 -5.1873,2.18236l-2.08434,2.25784l1.0461,5.4545c0.57535,2.99997 1.44825,7.48068 1.93978,9.95714c0.9361,4.71638 0.62156,6.42085 -1.32261,7.1669c-1.76979,0.67914 -2.63397,0.41224 -3.90751,-1.20681z"/><path d="M112.03868,165.23905c-1.01958,-1.95447 -3.1374,-5.91748 -4.70628,-8.80669c-1.56889,-2.88922 -2.86065,-5.88482 -2.87056,-6.6569c-0.02454,-1.91018 2.39593,-2.98602 5.023,-2.23258c1.7033,0.48851 2.2223,1.16529 3.74441,4.8828c0.97186,2.37363 2.59094,5.34227 3.59795,6.597c3.00535,3.74464 2.07164,9.76996 -1.51398,9.76996c-1.10269,0 -1.83578,-0.79556 -3.27453,-3.55358z"/></g></g></svg>